<?xml version="1.0" standalone="no"?>
<!DOCTYPE svg PUBLIC "-//W3C//DTD SVG 20010904//EN"
 "http://www.w3.org/TR/2001/REC-SVG-20010904/DTD/svg10.dtd">
<svg version="1.0" xmlns="http://www.w3.org/2000/svg"
 width="512.000000pt" height="512.000000pt" viewBox="0 0 512.000000 512.000000"
 preserveAspectRatio="xMidYMid meet">
<metadata>
Created by potrace 1.14, written by Peter Selinger 2001-2017
</metadata>
<g transform="translate(0.000000,512.000000) scale(0.100000,-0.100000)"
fill="#000000" stroke="none">
<path d="M1673 2993 c3 -1518 3 -1540 24 -1668 59 -354 201 -573 457 -702 287
-145 958 -131 1160 22 l46 36 0 219 c0 121 -3 220 -6 220 -4 0 -60 -20 -125
-45 -152 -58 -257 -76 -439 -76 -329 -1 -470 94 -539 363 -37 144 -41 246 -41
1028 l0 760 570 0 570 0 0 225 0 225 -570 0 -570 0 0 465 0 465 -270 0 -271 0
4 -1537z"/>
</g>
</svg>
