<svg width="1500" height="500" viewBox="0 0 1500 500" fill="none" xmlns="http://www.w3.org/2000/svg">
<rect width="1500" height="500" fill="white"/>
<path d="M480.568 173.423H512.485V186.045H480.568V224.879C480.568 229.086 480.892 232.592 481.54 235.397C482.188 238.093 483.16 240.251 484.456 241.869C485.752 243.379 487.372 244.458 489.317 245.105C491.261 245.752 493.529 246.076 496.121 246.076C500.658 246.076 504.276 245.591 506.976 244.62C509.784 243.541 511.729 242.786 512.809 242.354L515.725 254.814C514.213 255.569 511.567 256.486 507.786 257.565C504.006 258.751 499.686 259.345 494.825 259.345C489.101 259.345 484.348 258.643 480.568 257.241C476.895 255.731 473.925 253.519 471.657 250.607C469.389 247.694 467.768 244.134 466.796 239.927C465.932 235.612 465.5 230.65 465.5 225.041V149.961L480.568 147.372V173.423Z" fill="#06283D"/>
<path d="M603.808 215.494C603.808 222.182 602.836 228.223 600.892 233.617C598.948 239.01 596.194 243.649 592.629 247.532C589.173 251.416 585.015 254.436 580.154 256.594C575.294 258.643 570.001 259.668 564.277 259.668C558.552 259.668 553.26 258.643 548.399 256.594C543.539 254.436 539.326 251.416 535.762 247.532C532.306 243.649 529.605 239.01 527.661 233.617C525.717 228.223 524.745 222.182 524.745 215.494C524.745 208.914 525.717 202.927 527.661 197.533C529.605 192.032 532.306 187.339 535.762 183.456C539.326 179.572 543.539 176.606 548.399 174.556C553.26 172.399 558.552 171.32 564.277 171.32C570.001 171.32 575.294 172.399 580.154 174.556C585.015 176.606 589.173 179.572 592.629 183.456C596.194 187.339 598.948 192.032 600.892 197.533C602.836 202.927 603.808 208.914 603.808 215.494ZM588.093 215.494C588.093 206.001 585.933 198.504 581.612 193.002C577.4 187.393 571.621 184.588 564.277 184.588C556.932 184.588 551.099 187.393 546.779 193.002C542.567 198.504 540.46 206.001 540.46 215.494C540.46 224.987 542.567 232.538 546.779 238.147C551.099 243.649 556.932 246.4 564.277 246.4C571.621 246.4 577.4 243.649 581.612 238.147C585.933 232.538 588.093 224.987 588.093 215.494Z" fill="#06283D"/>
<path d="M625.007 175.851C628.464 174.988 633 174.071 638.616 173.1C644.341 172.129 650.93 171.643 658.382 171.643C663.783 171.643 668.319 172.399 671.992 173.909C675.664 175.311 678.742 177.415 681.227 180.219C681.983 179.68 683.171 178.925 684.791 177.954C686.411 176.983 688.409 176.066 690.786 175.203C693.162 174.232 695.808 173.423 698.724 172.776C701.641 172.021 704.773 171.643 708.121 171.643C714.602 171.643 719.894 172.614 723.999 174.556C728.103 176.39 731.289 179.033 733.558 182.485C735.934 185.937 737.5 190.036 738.256 194.782C739.12 199.529 739.552 204.707 739.552 210.316V257.565H724.485V213.552C724.485 208.59 724.215 204.329 723.675 200.769C723.243 197.209 722.325 194.243 720.92 191.87C719.624 189.497 717.788 187.771 715.412 186.692C713.144 185.505 710.173 184.912 706.501 184.912C701.425 184.912 697.212 185.613 693.864 187.015C690.624 188.31 688.409 189.497 687.221 190.575C688.085 193.38 688.733 196.454 689.165 199.798C689.597 203.142 689.813 206.648 689.813 210.316V257.565H674.746V213.552C674.746 208.59 674.476 204.329 673.936 200.769C673.396 197.209 672.424 194.243 671.02 191.87C669.724 189.497 667.887 187.771 665.511 186.692C663.243 185.505 660.327 184.912 656.762 184.912C655.25 184.912 653.63 184.966 651.902 185.074C650.174 185.182 648.499 185.343 646.879 185.559C645.367 185.667 643.963 185.829 642.667 186.045C641.371 186.26 640.507 186.422 640.075 186.53V257.565H625.007V175.851Z" fill="#06283D"/>
<path d="M838.921 215.494C838.921 222.182 837.949 228.223 836.005 233.617C834.061 239.01 831.306 243.649 827.742 247.532C824.286 251.416 820.127 254.436 815.267 256.594C810.406 258.643 805.114 259.668 799.389 259.668C793.665 259.668 788.372 258.643 783.512 256.594C778.651 254.436 774.439 251.416 770.874 247.532C767.418 243.649 764.718 239.01 762.774 233.617C760.829 228.223 759.857 222.182 759.857 215.494C759.857 208.914 760.829 202.927 762.774 197.533C764.718 192.032 767.418 187.339 770.874 183.456C774.439 179.572 778.651 176.606 783.512 174.556C788.372 172.399 793.665 171.32 799.389 171.32C805.114 171.32 810.406 172.399 815.267 174.556C820.127 176.606 824.286 179.572 827.742 183.456C831.306 187.339 834.061 192.032 836.005 197.533C837.949 202.927 838.921 208.914 838.921 215.494ZM823.206 215.494C823.206 206.001 821.045 198.504 816.725 193.002C812.512 187.393 806.734 184.588 799.389 184.588C792.044 184.588 786.212 187.393 781.892 193.002C777.679 198.504 775.573 206.001 775.573 215.494C775.573 224.987 777.679 232.538 781.892 238.147C786.212 243.649 792.044 246.4 799.389 246.4C806.734 246.4 812.512 243.649 816.725 238.147C821.045 232.538 823.206 224.987 823.206 215.494Z" fill="#06283D"/>
<path d="M914.557 191.222C912.721 189.712 910.075 188.256 906.618 186.854C903.162 185.451 899.382 184.75 895.277 184.75C890.957 184.75 887.23 185.559 884.098 187.177C881.074 188.687 878.59 190.845 876.645 193.65C874.701 196.346 873.297 199.583 872.433 203.358C871.569 207.134 871.137 211.179 871.137 215.494C871.137 225.31 873.567 232.916 878.428 238.309C883.288 243.595 889.769 246.238 897.869 246.238C901.974 246.238 905.376 246.076 908.076 245.752C910.885 245.321 913.045 244.889 914.557 244.458V191.222ZM914.557 134.589L929.625 132V255.137C926.168 256.108 921.74 257.079 916.339 258.05C910.939 259.021 904.728 259.506 897.707 259.506C891.227 259.506 885.394 258.482 880.21 256.432C875.025 254.382 870.597 251.47 866.924 247.694C863.252 243.919 860.39 239.334 858.338 233.94C856.393 228.439 855.421 222.29 855.421 215.494C855.421 209.022 856.231 203.089 857.852 197.695C859.58 192.301 862.064 187.663 865.304 183.779C868.545 179.896 872.487 176.875 877.131 174.718C881.884 172.56 887.284 171.482 893.333 171.482C898.193 171.482 902.46 172.129 906.132 173.423C909.913 174.718 912.721 175.958 914.557 177.145V134.589Z" fill="#06283D"/>
<path d="M1029.89 215.494C1029.89 222.182 1028.92 228.223 1026.97 233.617C1025.03 239.01 1022.28 243.649 1018.71 247.532C1015.26 251.416 1011.1 254.436 1006.24 256.594C1001.38 258.643 996.083 259.668 990.359 259.668C984.634 259.668 979.342 258.643 974.481 256.594C969.621 254.436 965.408 251.416 961.844 247.532C958.388 243.649 955.688 239.01 953.743 233.617C951.799 228.223 950.827 222.182 950.827 215.494C950.827 208.914 951.799 202.927 953.743 197.533C955.688 192.032 958.388 187.339 961.844 183.456C965.408 179.572 969.621 176.606 974.481 174.556C979.342 172.399 984.634 171.32 990.359 171.32C996.083 171.32 1001.38 172.399 1006.24 174.556C1011.1 176.606 1015.26 179.572 1018.71 183.456C1022.28 187.339 1025.03 192.032 1026.97 197.533C1028.92 202.927 1029.89 208.914 1029.89 215.494ZM1014.18 215.494C1014.18 206.001 1012.01 198.504 1007.69 193.002C1003.48 187.393 997.704 184.588 990.359 184.588C983.014 184.588 977.182 187.393 972.861 193.002C968.649 198.504 966.543 206.001 966.543 215.494C966.543 224.987 968.649 232.538 972.861 238.147C977.182 243.649 983.014 246.4 990.359 246.4C997.704 246.4 1003.48 243.649 1007.69 238.147C1012.01 232.538 1014.18 224.987 1014.18 215.494Z" fill="#06283D"/>
<path d="M397.278 320.266H410.577V325.525H397.278V341.706C397.278 343.459 397.413 344.92 397.683 346.088C397.953 347.212 398.358 348.111 398.898 348.785C399.438 349.414 400.113 349.864 400.923 350.133C401.734 350.403 402.679 350.538 403.759 350.538C405.649 350.538 407.157 350.336 408.282 349.931C409.452 349.482 410.262 349.167 410.712 348.987L411.927 354.179C411.297 354.493 410.194 354.875 408.619 355.325C407.044 355.819 405.244 356.067 403.219 356.067C400.833 356.067 398.853 355.774 397.278 355.19C395.748 354.561 394.51 353.639 393.565 352.426C392.62 351.212 391.945 349.729 391.54 347.976C391.18 346.178 391 344.111 391 341.773V310.49L397.278 309.411V320.266Z" fill="black"/>
<path d="M448.628 337.795C448.628 340.582 448.223 343.099 447.413 345.347C446.603 347.594 445.456 349.527 443.97 351.145C442.53 352.763 440.798 354.021 438.772 354.92C436.747 355.774 434.542 356.201 432.157 356.201C429.772 356.201 427.566 355.774 425.541 354.92C423.516 354.021 421.761 352.763 420.276 351.145C418.836 349.527 417.71 347.594 416.9 345.347C416.09 343.099 415.685 340.582 415.685 337.795C415.685 335.054 416.09 332.559 416.9 330.312C417.71 328.019 418.836 326.064 420.276 324.446C421.761 322.828 423.516 321.592 425.541 320.738C427.566 319.839 429.772 319.39 432.157 319.39C434.542 319.39 436.747 319.839 438.772 320.738C440.798 321.592 442.53 322.828 443.97 324.446C445.456 326.064 446.603 328.019 447.413 330.312C448.223 332.559 448.628 335.054 448.628 337.795ZM442.08 337.795C442.08 333.84 441.18 330.716 439.38 328.424C437.625 326.087 435.217 324.918 432.157 324.918C429.097 324.918 426.666 326.087 424.866 328.424C423.111 330.716 422.233 333.84 422.233 337.795C422.233 341.751 423.111 344.897 424.866 347.234C426.666 349.527 429.097 350.673 432.157 350.673C435.217 350.673 437.625 349.527 439.38 347.234C441.18 344.897 442.08 341.751 442.08 337.795Z" fill="black"/>
<path d="M457.461 321.277C458.901 320.918 460.792 320.536 463.132 320.131C465.517 319.727 468.262 319.524 471.368 319.524C473.618 319.524 475.508 319.839 477.038 320.468C478.568 321.053 479.851 321.929 480.886 323.098C481.201 322.873 481.696 322.558 482.371 322.154C483.046 321.749 483.879 321.367 484.869 321.008C485.859 320.603 486.962 320.266 488.177 319.996C489.392 319.682 490.697 319.524 492.092 319.524C494.792 319.524 496.998 319.929 498.708 320.738C500.418 321.502 501.746 322.603 502.691 324.042C503.681 325.48 504.333 327.188 504.648 329.166C505.008 331.143 505.188 333.301 505.188 335.638V355.325H498.91V336.986C498.91 334.919 498.798 333.143 498.573 331.66C498.393 330.177 498.01 328.941 497.425 327.952C496.885 326.963 496.12 326.244 495.13 325.795C494.185 325.3 492.947 325.053 491.417 325.053C489.302 325.053 487.547 325.345 486.152 325.929C484.801 326.469 483.879 326.963 483.384 327.413C483.744 328.581 484.014 329.862 484.194 331.256C484.374 332.649 484.464 334.11 484.464 335.638V355.325H478.186V336.986C478.186 334.919 478.073 333.143 477.848 331.66C477.623 330.177 477.218 328.941 476.633 327.952C476.093 326.963 475.328 326.244 474.338 325.795C473.393 325.3 472.178 325.053 470.693 325.053C470.062 325.053 469.387 325.075 468.667 325.12C467.947 325.165 467.25 325.233 466.575 325.323C465.945 325.368 465.359 325.435 464.819 325.525C464.279 325.615 463.919 325.682 463.739 325.727V355.325H457.461V321.277Z" fill="black"/>
<path d="M546.592 337.795C546.592 340.582 546.187 343.099 545.377 345.347C544.567 347.594 543.419 349.527 541.934 351.145C540.494 352.763 538.761 354.021 536.736 354.92C534.711 355.774 532.506 356.201 530.12 356.201C527.735 356.201 525.53 355.774 523.505 354.92C521.48 354.021 519.724 352.763 518.239 351.145C516.799 349.527 515.674 347.594 514.864 345.347C514.054 343.099 513.649 340.582 513.649 337.795C513.649 335.054 514.054 332.559 514.864 330.312C515.674 328.019 516.799 326.064 518.239 324.446C519.724 322.828 521.48 321.592 523.505 320.738C525.53 319.839 527.735 319.39 530.12 319.39C532.506 319.39 534.711 319.839 536.736 320.738C538.761 321.592 540.494 322.828 541.934 324.446C543.419 326.064 544.567 328.019 545.377 330.312C546.187 332.559 546.592 335.054 546.592 337.795ZM540.044 337.795C540.044 333.84 539.144 330.716 537.344 328.424C535.588 326.087 533.181 324.918 530.12 324.918C527.06 324.918 524.63 326.087 522.83 328.424C521.075 330.716 520.197 333.84 520.197 337.795C520.197 341.751 521.075 344.897 522.83 347.234C524.63 349.527 527.06 350.673 530.12 350.673C533.181 350.673 535.588 349.527 537.344 347.234C539.144 344.897 540.044 341.751 540.044 337.795Z" fill="black"/>
<path d="M568.386 319.524C568.926 319.524 569.534 319.569 570.209 319.659C570.929 319.704 571.626 319.794 572.301 319.929C572.977 320.019 573.584 320.131 574.124 320.266C574.709 320.356 575.137 320.446 575.407 320.536L574.327 325.997C573.832 325.817 572.999 325.615 571.829 325.39C570.704 325.12 569.241 324.985 567.441 324.985C566.271 324.985 565.101 325.12 563.931 325.39C562.806 325.615 562.063 325.772 561.703 325.862V355.325H555.425V321.749C556.91 321.21 558.755 320.715 560.96 320.266C563.166 319.772 565.641 319.524 568.386 319.524Z" fill="black"/>
<path d="M594.426 319.524C594.966 319.524 595.574 319.569 596.249 319.659C596.969 319.704 597.667 319.794 598.342 319.929C599.017 320.019 599.624 320.131 600.164 320.266C600.749 320.356 601.177 320.446 601.447 320.536L600.367 325.997C599.872 325.817 599.039 325.615 597.869 325.39C596.744 325.12 595.281 324.985 593.481 324.985C592.311 324.985 591.141 325.12 589.971 325.39C588.846 325.615 588.103 325.772 587.743 325.862V355.325H581.465V321.749C582.95 321.21 584.795 320.715 587 320.266C589.206 319.772 591.681 319.524 594.426 319.524Z" fill="black"/>
<path d="M638.491 337.795C638.491 340.582 638.086 343.099 637.275 345.347C636.465 347.594 635.318 349.527 633.833 351.145C632.392 352.763 630.66 354.021 628.635 354.92C626.609 355.774 624.404 356.201 622.019 356.201C619.634 356.201 617.429 355.774 615.403 354.92C613.378 354.021 611.623 352.763 610.138 351.145C608.698 349.527 607.573 347.594 606.762 345.347C605.952 343.099 605.547 340.582 605.547 337.795C605.547 335.054 605.952 332.559 606.762 330.312C607.573 328.019 608.698 326.064 610.138 324.446C611.623 322.828 613.378 321.592 615.403 320.738C617.429 319.839 619.634 319.39 622.019 319.39C624.404 319.39 626.609 319.839 628.635 320.738C630.66 321.592 632.392 322.828 633.833 324.446C635.318 326.064 636.465 328.019 637.275 330.312C638.086 332.559 638.491 335.054 638.491 337.795ZM631.942 337.795C631.942 333.84 631.042 330.716 629.242 328.424C627.487 326.087 625.079 324.918 622.019 324.918C618.959 324.918 616.528 326.087 614.728 328.424C612.973 330.716 612.096 333.84 612.096 337.795C612.096 341.751 612.973 344.897 614.728 347.234C616.528 349.527 618.959 350.673 622.019 350.673C625.079 350.673 627.487 349.527 629.242 347.234C631.042 344.897 631.942 341.751 631.942 337.795Z" fill="black"/>
<path d="M675.157 355.325C673.897 352.089 672.546 348.403 671.106 344.268C669.711 340.088 668.428 335.75 667.258 331.256C666.088 335.75 664.806 340.088 663.41 344.268C662.015 348.403 660.688 352.089 659.428 355.325H653.96C651.889 350.695 649.864 345.414 647.884 339.481C645.904 333.548 644.036 327.143 642.281 320.266H649.032C649.482 322.379 650.022 324.671 650.652 327.143C651.282 329.615 651.934 332.087 652.609 334.559C653.33 337.031 654.072 339.414 654.837 341.706C655.602 343.998 656.322 345.998 656.997 347.706C657.762 345.594 658.505 343.369 659.225 341.032C659.99 338.649 660.71 336.267 661.385 333.885C662.06 331.458 662.69 329.098 663.275 326.806C663.906 324.469 664.446 322.289 664.896 320.266H670.094C670.499 322.289 670.994 324.469 671.579 326.806C672.164 329.098 672.794 331.458 673.469 333.885C674.144 336.267 674.842 338.649 675.562 341.032C676.327 343.369 677.092 345.594 677.857 347.706C678.532 345.998 679.23 343.998 679.95 341.706C680.715 339.414 681.457 337.031 682.177 334.559C682.897 332.087 683.572 329.615 684.203 327.143C684.833 324.671 685.373 322.379 685.823 320.266H692.303C690.548 327.143 688.68 333.548 686.7 339.481C684.72 345.414 682.695 350.695 680.625 355.325H675.157Z" fill="black"/>
<path d="M743.256 355.325C741.996 352.089 740.646 348.403 739.206 344.268C737.811 340.088 736.528 335.75 735.358 331.256C734.188 335.75 732.905 340.088 731.51 344.268C730.115 348.403 728.788 352.089 727.527 355.325H722.059C719.989 350.695 717.964 345.414 715.984 339.481C714.004 333.548 712.136 327.143 710.381 320.266H717.131C717.581 322.379 718.122 324.671 718.752 327.143C719.382 329.615 720.034 332.087 720.709 334.559C721.429 337.031 722.172 339.414 722.937 341.706C723.702 343.998 724.422 345.998 725.097 347.706C725.862 345.594 726.605 343.369 727.325 341.032C728.09 338.649 728.81 336.267 729.485 333.885C730.16 331.458 730.79 329.098 731.375 326.806C732.005 324.469 732.545 322.289 732.995 320.266H738.193C738.599 322.289 739.094 324.469 739.679 326.806C740.264 329.098 740.894 331.458 741.569 333.885C742.244 336.267 742.941 338.649 743.661 341.032C744.427 343.369 745.192 345.594 745.957 347.706C746.632 345.998 747.329 343.998 748.049 341.706C748.815 339.414 749.557 337.031 750.277 334.559C750.997 332.087 751.672 329.615 752.302 327.143C752.932 324.671 753.472 322.379 753.922 320.266H760.403C758.648 327.143 756.78 333.548 754.8 339.481C752.82 345.414 750.795 350.695 748.724 355.325H743.256Z" fill="black"/>
<path d="M767.042 355.325V304.085L773.32 303.006V320.94C774.49 320.491 775.728 320.154 777.033 319.929C778.383 319.659 779.711 319.524 781.016 319.524C783.806 319.524 786.124 319.929 787.969 320.738C789.814 321.502 791.277 322.603 792.357 324.042C793.482 325.435 794.27 327.12 794.72 329.098C795.17 331.076 795.395 333.256 795.395 335.638V355.325H789.117V336.986C789.117 334.829 788.959 332.986 788.644 331.458C788.374 329.93 787.901 328.694 787.226 327.75C786.551 326.806 785.651 326.132 784.526 325.727C783.401 325.278 782.006 325.053 780.341 325.053C779.666 325.053 778.968 325.098 778.248 325.188C777.528 325.278 776.83 325.39 776.155 325.525C775.525 325.615 774.94 325.727 774.4 325.862C773.905 325.997 773.545 326.109 773.32 326.199V355.325H767.042Z" fill="black"/>
<path d="M817.489 350.808C818.974 350.808 820.279 350.785 821.404 350.74C822.574 350.65 823.542 350.516 824.307 350.336V339.885C823.857 339.661 823.114 339.481 822.079 339.346C821.089 339.166 819.874 339.076 818.434 339.076C817.489 339.076 816.476 339.144 815.396 339.279C814.361 339.414 813.393 339.706 812.493 340.155C811.638 340.56 810.918 341.144 810.333 341.908C809.748 342.627 809.456 343.594 809.456 344.807C809.456 347.055 810.176 348.628 811.616 349.527C813.056 350.381 815.014 350.808 817.489 350.808ZM816.949 319.39C819.469 319.39 821.584 319.727 823.294 320.401C825.05 321.03 826.445 321.952 827.48 323.165C828.56 324.334 829.325 325.75 829.775 327.413C830.225 329.031 830.45 330.829 830.45 332.806V354.718C829.91 354.808 829.145 354.943 828.155 355.123C827.21 355.257 826.13 355.392 824.915 355.527C823.699 355.662 822.372 355.774 820.932 355.864C819.537 355.999 818.141 356.067 816.746 356.067C814.766 356.067 812.943 355.864 811.278 355.46C809.613 355.055 808.173 354.426 806.958 353.572C805.743 352.673 804.798 351.504 804.123 350.066C803.448 348.628 803.11 346.897 803.11 344.875C803.11 342.942 803.493 341.279 804.258 339.885C805.068 338.492 806.148 337.368 807.498 336.514C808.848 335.66 810.423 335.031 812.223 334.627C814.024 334.222 815.914 334.02 817.894 334.02C818.524 334.02 819.177 334.065 819.852 334.155C820.527 334.2 821.157 334.29 821.742 334.424C822.372 334.514 822.912 334.604 823.362 334.694C823.812 334.784 824.127 334.851 824.307 334.896V333.143C824.307 332.11 824.195 331.098 823.969 330.109C823.744 329.076 823.339 328.177 822.754 327.413C822.169 326.604 821.359 325.974 820.324 325.525C819.334 325.03 818.029 324.783 816.409 324.783C814.339 324.783 812.516 324.941 810.941 325.255C809.411 325.525 808.263 325.817 807.498 326.132L806.755 320.94C807.565 320.581 808.916 320.244 810.806 319.929C812.696 319.569 814.744 319.39 816.949 319.39Z" fill="black"/>
<path d="M846.75 320.266H860.049V325.525H846.75V341.706C846.75 343.459 846.885 344.92 847.155 346.088C847.425 347.212 847.83 348.111 848.37 348.785C848.911 349.414 849.586 349.864 850.396 350.133C851.206 350.403 852.151 350.538 853.231 350.538C855.121 350.538 856.629 350.336 857.754 349.931C858.924 349.482 859.734 349.167 860.184 348.987L861.399 354.179C860.769 354.493 859.667 354.875 858.091 355.325C856.516 355.819 854.716 356.067 852.691 356.067C850.306 356.067 848.325 355.774 846.75 355.19C845.22 354.561 843.983 353.639 843.037 352.426C842.092 351.212 841.417 349.729 841.012 347.976C840.652 346.178 840.472 344.111 840.472 341.773V310.49L846.75 309.411V320.266Z" fill="black"/>
<path d="M879.544 361.865C880.039 362.089 880.669 362.292 881.434 362.471C882.245 362.696 883.032 362.809 883.797 362.809C886.272 362.809 888.208 362.247 889.603 361.123C890.998 360.044 892.258 358.269 893.383 355.797C890.548 350.403 887.893 344.695 885.417 338.672C882.987 332.604 880.962 326.469 879.342 320.266H886.092C886.587 322.289 887.172 324.469 887.848 326.806C888.568 329.143 889.355 331.548 890.21 334.02C891.065 336.492 891.988 338.964 892.978 341.436C893.968 343.908 895.003 346.29 896.083 348.583C897.794 343.863 899.279 339.189 900.539 334.559C901.799 329.93 902.991 325.165 904.117 320.266H910.597C908.977 326.873 907.177 333.233 905.197 339.346C903.217 345.414 901.079 351.1 898.784 356.404C897.884 358.426 896.938 360.157 895.948 361.595C895.003 363.078 893.946 364.292 892.776 365.236C891.605 366.18 890.278 366.876 888.793 367.326C887.353 367.775 885.71 368 883.865 368C883.37 368 882.852 367.955 882.312 367.865C881.772 367.82 881.232 367.73 880.692 367.595C880.197 367.506 879.724 367.393 879.274 367.258C878.869 367.124 878.577 367.011 878.397 366.921L879.544 361.865Z" fill="black"/>
<path d="M948.203 337.795C948.203 340.582 947.798 343.099 946.988 345.347C946.178 347.594 945.03 349.527 943.545 351.145C942.105 352.763 940.372 354.021 938.347 354.92C936.322 355.774 934.117 356.201 931.732 356.201C929.346 356.201 927.141 355.774 925.116 354.92C923.091 354.021 921.336 352.763 919.85 351.145C918.41 349.527 917.285 347.594 916.475 345.347C915.665 343.099 915.26 340.582 915.26 337.795C915.26 335.054 915.665 332.559 916.475 330.312C917.285 328.019 918.41 326.064 919.85 324.446C921.336 322.828 923.091 321.592 925.116 320.738C927.141 319.839 929.346 319.39 931.732 319.39C934.117 319.39 936.322 319.839 938.347 320.738C940.372 321.592 942.105 322.828 943.545 324.446C945.03 326.064 946.178 328.019 946.988 330.312C947.798 332.559 948.203 335.054 948.203 337.795ZM941.655 337.795C941.655 333.84 940.755 330.716 938.955 328.424C937.2 326.087 934.792 324.918 931.732 324.918C928.671 324.918 926.241 326.087 924.441 328.424C922.686 330.716 921.808 333.84 921.808 337.795C921.808 341.751 922.686 344.897 924.441 347.234C926.241 349.527 928.671 350.673 931.732 350.673C934.792 350.673 937.2 349.527 938.955 347.234C940.755 344.897 941.655 341.751 941.655 337.795Z" fill="black"/>
<path d="M984.984 354.314C983.544 354.673 981.631 355.055 979.246 355.46C976.905 355.864 974.183 356.067 971.077 356.067C968.377 356.067 966.104 355.684 964.259 354.92C962.414 354.111 960.929 352.988 959.804 351.549C958.679 350.111 957.869 348.425 957.373 346.493C956.878 344.515 956.631 342.335 956.631 339.953V320.266H962.909V338.605C962.909 342.874 963.584 345.931 964.934 347.774C966.284 349.617 968.557 350.538 971.752 350.538C972.427 350.538 973.125 350.516 973.845 350.471C974.565 350.426 975.24 350.381 975.87 350.336C976.5 350.246 977.063 350.178 977.558 350.133C978.098 350.044 978.481 349.954 978.706 349.864V320.266H984.984V354.314Z" fill="black"/>
<path d="M1034.11 327.682C1033.34 327.053 1032.24 326.446 1030.8 325.862C1029.36 325.278 1027.78 324.985 1026.07 324.985C1024.27 324.985 1022.72 325.323 1021.41 325.997C1020.15 326.626 1019.12 327.525 1018.31 328.694C1017.5 329.817 1016.91 331.166 1016.55 332.739C1016.19 334.312 1016.01 335.998 1016.01 337.795C1016.01 341.886 1017.03 345.054 1019.05 347.302C1021.08 349.504 1023.78 350.605 1027.15 350.605C1028.86 350.605 1030.28 350.538 1031.41 350.403C1032.58 350.223 1033.48 350.044 1034.11 349.864V327.682ZM1034.11 304.085L1040.38 303.006V354.314C1038.94 354.718 1037.1 355.123 1034.85 355.527C1032.6 355.932 1030.01 356.134 1027.09 356.134C1024.38 356.134 1021.95 355.707 1019.79 354.853C1017.63 353.999 1015.79 352.785 1014.26 351.212C1012.73 349.639 1011.54 347.729 1010.68 345.481C1009.87 343.189 1009.47 340.627 1009.47 337.795C1009.47 335.099 1009.8 332.627 1010.48 330.379C1011.2 328.132 1012.23 326.199 1013.58 324.581C1014.93 322.963 1016.58 321.704 1018.51 320.805C1020.49 319.906 1022.74 319.457 1025.26 319.457C1027.29 319.457 1029.07 319.727 1030.6 320.266C1032.17 320.805 1033.34 321.322 1034.11 321.817V304.085Z" fill="black"/>
<path d="M1082.16 337.795C1082.16 340.582 1081.76 343.099 1080.95 345.347C1080.14 347.594 1078.99 349.527 1077.5 351.145C1076.06 352.763 1074.33 354.021 1072.31 354.92C1070.28 355.774 1068.08 356.201 1065.69 356.201C1063.3 356.201 1061.1 355.774 1059.07 354.92C1057.05 354.021 1055.29 352.763 1053.81 351.145C1052.37 349.527 1051.24 347.594 1050.43 345.347C1049.62 343.099 1049.22 340.582 1049.22 337.795C1049.22 335.054 1049.62 332.559 1050.43 330.312C1051.24 328.019 1052.37 326.064 1053.81 324.446C1055.29 322.828 1057.05 321.592 1059.07 320.738C1061.1 319.839 1063.3 319.39 1065.69 319.39C1068.08 319.39 1070.28 319.839 1072.31 320.738C1074.33 321.592 1076.06 322.828 1077.5 324.446C1078.99 326.064 1080.14 328.019 1080.95 330.312C1081.76 332.559 1082.16 335.054 1082.16 337.795ZM1075.61 337.795C1075.61 333.84 1074.71 330.716 1072.91 328.424C1071.16 326.087 1068.75 324.918 1065.69 324.918C1062.63 324.918 1060.2 326.087 1058.4 328.424C1056.64 330.716 1055.77 333.84 1055.77 337.795C1055.77 341.751 1056.64 344.897 1058.4 347.234C1060.2 349.527 1062.63 350.673 1065.69 350.673C1068.75 350.673 1071.16 349.527 1072.91 347.234C1074.71 344.897 1075.61 341.751 1075.61 337.795Z" fill="black"/>
<path d="M1095.3 312.782C1092.33 312.782 1089.42 313.546 1086.59 315.075L1084.83 310.22C1086.36 309.411 1088.07 308.76 1089.96 308.265C1091.9 307.771 1093.95 307.523 1096.11 307.523C1098.67 307.523 1100.76 307.883 1102.38 308.602C1104.05 309.276 1105.38 310.153 1106.37 311.232C1107.36 312.31 1108.03 313.524 1108.39 314.872C1108.8 316.176 1109 317.434 1109 318.648C1109 320.176 1108.71 321.547 1108.12 322.761C1107.54 323.929 1106.82 325.03 1105.96 326.064C1105.11 327.098 1104.16 328.087 1103.13 329.031C1102.09 329.975 1101.15 330.963 1100.29 331.997C1099.44 332.986 1098.72 334.087 1098.13 335.301C1097.55 336.47 1097.25 337.795 1097.25 339.279C1097.25 339.503 1097.25 339.751 1097.25 340.02C1097.25 340.29 1097.28 340.537 1097.32 340.762H1092.06C1091.88 339.863 1091.79 338.919 1091.79 337.93C1091.79 336.492 1092.03 335.189 1092.53 334.02C1093.07 332.851 1093.74 331.773 1094.55 330.784C1095.36 329.75 1096.22 328.806 1097.12 327.952C1098.02 327.053 1098.87 326.154 1099.68 325.255C1100.49 324.356 1101.15 323.412 1101.64 322.423C1102.18 321.435 1102.45 320.356 1102.45 319.187C1102.45 317.299 1101.84 315.771 1100.63 314.603C1099.41 313.389 1097.64 312.782 1095.3 312.782ZM1099.55 351.684C1099.55 352.898 1099.14 353.954 1098.33 354.853C1097.52 355.752 1096.42 356.201 1095.03 356.201C1093.63 356.201 1092.53 355.752 1091.72 354.853C1090.91 353.954 1090.5 352.898 1090.5 351.684C1090.5 350.471 1090.91 349.414 1091.72 348.515C1092.53 347.616 1093.63 347.167 1095.03 347.167C1096.42 347.167 1097.52 347.616 1098.33 348.515C1099.14 349.414 1099.55 350.471 1099.55 351.684Z" fill="black"/>
</svg>
